<svg width="24" height="24" viewBox="0 0 24 24" fill="none" xmlns="http://www.w3.org/2000/svg">
<path fill-rule="evenodd" clip-rule="evenodd" d="M9.50918 1.36889C10.8233 0.0488324 12.9261 -0.00928388 14.2768 1.16915L14.4895 1.36749L15.328 2.20602C15.6161 2.4927 15.9939 2.66945 16.3958 2.70916L16.5693 2.71771H17.7686C19.6397 2.71771 21.1698 4.1809 21.2767 6.02526L21.2826 6.23171V7.42987C21.2826 7.83796 21.4233 8.23029 21.6772 8.54224L21.7928 8.67082L22.6314 9.50942C23.9515 10.8236 24.0105 12.9251 22.8011 14.31L22.6433 14.4793L21.7936 15.329C21.5078 15.6155 21.3309 15.9936 21.2912 16.3951L21.2826 16.5684V17.7689C21.2826 19.6399 19.8195 21.1689 17.9751 21.2757L17.7686 21.2817H16.5693C16.1627 21.2817 15.7698 21.423 15.4577 21.6776L15.3291 21.7935L14.4916 22.6298C13.1789 23.9515 11.0759 24.0101 9.69041 22.8003L9.51058 22.6319L8.67395 21.7953C8.38415 21.5075 8.00565 21.3301 7.60489 21.2903L7.43196 21.2817H6.23146C4.36114 21.2817 2.83147 19.8193 2.7246 17.9753L2.71863 17.7689V16.5684C2.71863 16.1624 2.57712 15.7692 2.32269 15.4576L2.20682 15.3293L1.37017 14.4915C0.0488278 13.1776 -0.00978311 11.0746 1.20007 9.69048L1.35791 9.52132L2.20505 8.67302C2.49316 8.38286 2.67029 8.00508 2.71007 7.60333L2.71863 7.42987V6.23171L2.7246 6.02529C2.82752 4.24942 4.24988 2.82663 6.02512 2.72367L6.23146 2.71771H7.43196C7.83852 2.71771 8.23142 2.57667 8.54297 2.3233L8.67132 2.20792L9.50918 1.36889ZM13.2895 2.64019L13.243 2.59699C12.5963 1.95326 11.5745 1.91557 10.8823 2.48295L10.7484 2.60449L9.90698 3.44712C9.30353 4.0463 8.50538 4.40456 7.66276 4.46011L7.43196 4.46771H6.23146C5.31264 4.46771 4.55697 5.17255 4.47584 6.07121L4.46863 6.23171V7.42987C4.46863 8.28057 4.15992 9.09857 3.60308 9.73798L3.44511 9.90783L2.59675 10.7574C1.95296 11.4041 1.91548 12.4257 2.48441 13.1187L2.60628 13.2528L3.44542 14.0931C4.04555 14.6946 4.40522 15.4942 4.461 16.3374L4.46863 16.5684V17.7689C4.46863 18.6882 5.17295 19.4434 6.07106 19.5245L6.23146 19.5317H7.43196C8.28105 19.5317 9.09976 19.8408 9.73931 20.3977L9.90918 20.5557L10.753 21.3995C11.4043 22.0471 12.4262 22.0848 13.1186 21.5159L13.2525 21.3941L14.0935 20.5542C14.6964 19.9542 15.4949 19.595 16.3383 19.5393L16.5693 19.5317H17.7686C18.6888 19.5317 19.4443 18.8277 19.5254 17.9293L19.5326 17.7689V16.5684C19.5326 15.718 19.8416 14.8979 20.3977 14.2613L20.5554 14.0923L21.4042 13.2436C22.0479 12.5961 22.0852 11.575 21.5171 10.8822L21.3954 10.7483L20.5532 9.90606C19.9537 9.30222 19.5957 8.50489 19.5402 7.66105L19.5326 7.42987V6.23171C19.5326 5.31189 18.8279 4.55606 17.9291 4.47492L17.7686 4.46771H16.5693C15.7186 4.46771 14.8995 4.15925 14.2615 3.60279L14.0921 3.44492L13.2895 2.64019ZM14.3764 15.6194C14.5398 15.7827 14.7614 15.8761 14.9948 15.8761C15.2281 15.8761 15.4498 15.7827 15.6131 15.6194C15.6948 15.5377 15.7648 15.4327 15.8114 15.3277C15.8464 15.2227 15.8698 15.1189 15.8698 15.0011C15.8698 14.8844 15.8464 14.7677 15.8114 14.6627C15.7648 14.5577 15.6948 14.4644 15.6131 14.3827C15.2864 14.0561 14.7031 14.0561 14.3764 14.3827C14.2948 14.4644 14.2364 14.5577 14.1898 14.6627C14.1431 14.7677 14.1198 14.8844 14.1198 15.0011C14.1198 15.1189 14.1431 15.2227 14.1898 15.3277C14.2364 15.4327 14.2948 15.5377 14.3764 15.6194ZM8.99798 9.87987C8.88131 9.87987 8.77631 9.85537 8.67131 9.80871C8.56631 9.76204 8.46131 9.70487 8.37965 9.62321C8.29798 9.52987 8.23965 9.43654 8.19298 9.33154C8.14631 9.22537 8.12298 9.12154 8.12298 9.00487C8.12298 8.88704 8.14631 8.77154 8.19298 8.66654C8.23965 8.56154 8.29798 8.45654 8.37965 8.38654C8.71798 8.05871 9.28965 8.05871 9.61631 8.38654C9.77965 8.54871 9.87298 8.77154 9.87298 9.00487C9.87298 9.12154 9.86131 9.22537 9.81465 9.33154C9.76798 9.43654 9.69798 9.52987 9.61631 9.62321C9.53465 9.70487 9.44131 9.76204 9.33631 9.80871C9.23131 9.85537 9.11465 9.87987 8.99798 9.87987ZM15.6173 8.3823C15.2756 8.0406 14.7216 8.0406 14.3799 8.3823L8.38323 14.379L8.29851 14.4771C8.04434 14.8197 8.07258 15.3058 8.38323 15.6164C8.72494 15.9581 9.27896 15.9581 9.62066 15.6164L15.6173 9.61974L15.7021 9.5216C15.9562 9.17906 15.928 8.69295 15.6173 8.3823Z" fill="#1B7754"/>
</svg>
