<svg width="56" height="56" viewBox="0 0 56 56" fill="none" xmlns="http://www.w3.org/2000/svg">
<rect width="56" height="56" rx="28" fill="#E8F1EE"/>
<rect x="8" y="8" width="40" height="40" rx="20" fill="#1B7754"/>
<g clip-path="url(#clip0_10036_44754)">
<path fill-rule="evenodd" clip-rule="evenodd" d="M23 18C21.3431 18 20 19.3431 20 21V31C20 32.6569 21.3431 34 23 34H33C34.6569 34 36 32.6569 36 31V21C36 19.3431 34.6569 18 33 18H23ZM28 28C29.1046 28 30 27.1046 30 26C30 24.8954 29.1046 24 28 24C26.8954 24 26 24.8954 26 26C26 27.1046 26.8954 28 28 28Z" fill="white"/>
<path d="M27 33.938C24.9827 33.6813 23.1389 32.6661 21.8432 31.0988C20.5475 29.5314 19.8973 27.5295 20.0246 25.5C20.152 23.4704 21.0473 21.5655 22.5287 20.1724C24.0102 18.7793 25.9664 18.0025 28 18C30.036 17.9985 31.9961 18.7733 33.4807 20.1667C34.9653 21.56 35.8628 23.467 35.9903 25.499C36.1178 27.5311 35.4657 29.5353 34.1669 31.1033C32.868 32.6712 31.0203 33.685 29 33.938V36.012C32.946 36.104 36 36.735 36 37.5C36 38.328 32.418 39 28 39C23.582 39 20 38.328 20 37.5C20 36.735 23.054 36.104 27 36.012V33.938ZM28 28C28.5304 28 29.0391 27.7893 29.4142 27.4142C29.7893 27.0391 30 26.5304 30 26C30 25.4696 29.7893 24.9609 29.4142 24.5858C29.0391 24.2107 28.5304 24 28 24C27.4696 24 26.9609 24.2107 26.5858 24.5858C26.2107 24.9609 26 25.4696 26 26C26 26.5304 26.2107 27.0391 26.5858 27.4142C26.9609 27.7893 27.4696 28 28 28Z" fill="white"/>
</g>
<defs>
<clipPath id="clip0_10036_44754">
<rect width="24" height="24" fill="white" transform="translate(16 16)"/>
</clipPath>
</defs>
</svg>
