<svg width="16" height="16" viewBox="0 0 16 16" fill="none" xmlns="http://www.w3.org/2000/svg">
<path fill-rule="evenodd" clip-rule="evenodd" d="M10.888 1.33594H5.1087C2.84365 1.33594 1.33203 2.95767 1.33203 5.27994V10.7253C1.33203 13.0497 2.83961 14.6693 5.1087 14.6693H10.8874C13.1571 14.6693 14.6654 13.0497 14.6654 10.7253V5.27994C14.6654 2.95561 13.1572 1.33594 10.888 1.33594ZM5.1087 2.33594H10.888C12.5884 2.33594 13.6654 3.49258 13.6654 5.27994V10.7253C13.6654 12.5127 12.5883 13.6693 10.8874 13.6693H5.1087C3.40854 13.6693 2.33203 12.5128 2.33203 10.7253V5.27994C2.33203 3.49485 3.41226 2.33594 5.1087 2.33594ZM7.99823 4.972C8.27437 4.972 8.49823 5.19586 8.49823 5.472C8.49823 5.72513 8.31013 5.93433 8.06608 5.96744L7.99156 5.972C7.71542 5.972 7.49157 5.74815 7.49157 5.472C7.49157 5.21887 7.67967 5.00968 7.92372 4.97657L7.99823 4.972ZM7.99157 7.0872C8.2447 7.0872 8.45389 7.27531 8.487 7.51936L8.49157 7.5872V10.5332C8.49157 10.8093 8.26771 11.0332 7.99157 11.0332C7.73843 11.0332 7.52924 10.8451 7.49613 10.6011L7.49157 10.5332V7.5872C7.49157 7.31106 7.71542 7.0872 7.99157 7.0872Z" fill="#1B7754"/>
</svg>
