<svg width="20" height="24" viewBox="0 0 20 24" fill="none" xmlns="http://www.w3.org/2000/svg">
<path fill-rule="evenodd" clip-rule="evenodd" d="M10.0418 0.333496H9.95859C6.02793 0.333496 2.42397 3.18549 2.07433 6.96128C2.05101 7.23139 2.03512 7.50739 2.02485 7.80472L2.01049 8.49986L2.00764 9.12311L2.02519 9.05206C1.86298 9.84305 1.48913 10.5767 0.942298 11.1762L0.863931 11.2771C0.395717 11.9883 0.126691 12.8116 0.0850491 13.6617L0.0840624 13.9397C0.0601585 15.0577 0.443297 16.1641 1.16408 17.0429C2.14152 18.0749 3.4068 18.6905 4.7648 18.8212C8.238 19.1984 11.752 19.1984 15.2349 18.8202C16.5836 18.696 17.8526 18.0786 18.7891 17.0847C19.4962 16.2388 19.8821 15.2236 19.9152 14.1725L19.9163 13.702C19.8776 12.8145 19.6069 11.9905 19.1331 11.2823L19.0611 11.1899L18.8853 10.9831C18.4902 10.4896 18.2017 9.92119 18.0375 9.31319L17.9855 9.09489L17.9748 8.86594C17.9715 8.76298 17.9699 8.64879 17.9694 8.50618L17.9693 7.7209C17.9666 7.4205 17.9577 7.20689 17.9369 6.96642C17.5754 3.18349 13.9704 0.333496 10.0418 0.333496ZM9.95859 1.9614H10.0418C13.1889 1.9614 16.0598 4.23104 16.3355 7.11564C16.3518 7.30501 16.3591 7.48568 16.3613 7.75408L16.3644 8.80949C16.368 8.97828 16.3746 9.11864 16.3859 9.27659L16.4009 9.3847L16.4767 9.70645C16.701 10.5576 17.1039 11.3516 17.6585 12.0362L17.8194 12.2248L17.8016 12.1952C18.1092 12.655 18.2845 13.1885 18.309 13.7387L18.3081 13.9293C18.3267 14.6948 18.0729 15.422 17.5928 15.9979C16.9583 16.6691 16.0513 17.1104 15.0763 17.2003C11.6945 17.5674 8.2955 17.5674 4.92663 17.2016C3.94097 17.1067 3.03329 16.665 2.36231 15.9587C1.92735 15.4251 1.6763 14.7001 1.69207 13.9571L1.69225 13.702L1.71263 13.4798C1.76172 13.1079 1.88596 12.7311 2.07853 12.3841L2.17619 12.2225C2.8921 11.4173 3.38342 10.4381 3.59981 9.38294L3.6166 9.2175L3.62421 8.14502L3.64294 7.60089C3.65144 7.42925 3.66232 7.26615 3.67596 7.10807C3.94238 4.23117 6.81061 1.9614 9.95859 1.9614ZM2.17619 12.2225C2.15887 12.2419 2.14143 12.2613 2.12385 12.2806L2.18133 12.214L2.17619 12.2225ZM13.0423 20.9725C12.6963 20.6908 12.1901 20.7463 11.9117 21.0965C11.7911 21.2483 11.6514 21.3845 11.496 21.5018C10.9689 21.9152 10.3111 22.0993 9.65714 22.0214C9.00415 21.9436 8.41058 21.6113 8.00783 21.0995C7.73111 20.748 7.22521 20.69 6.87788 20.9701C6.53055 21.2502 6.4733 21.7623 6.75003 22.1139C7.41785 22.9624 8.39641 23.5104 9.46919 23.6382C10.541 23.7658 11.6203 23.4638 12.4692 22.7977C12.7212 22.6077 12.959 22.3759 13.1648 22.1169C13.4431 21.7667 13.3883 21.2543 13.0423 20.9725Z" fill="#1B7754"/>
</svg>
