<svg width="32" height="32" viewBox="0 0 32 32" fill="none" xmlns="http://www.w3.org/2000/svg">
<path fill-rule="evenodd" clip-rule="evenodd" d="M19.4773 2.67966C19.4199 2.66941 19.3607 2.66406 19.3004 2.66406C19.24 2.66406 19.1809 2.66941 19.1235 2.67966H10.78C7.46357 2.67966 4.66797 5.3701 4.66797 8.65166V22.9357C4.66797 26.4031 7.34076 29.1503 10.78 29.1503H21.432C24.703 29.1503 27.404 26.2678 27.404 22.9357V10.7143C27.404 10.4562 27.3041 10.208 27.1254 10.0218L20.372 2.98713C20.1834 2.7907 19.9229 2.67966 19.6506 2.67966H19.4773ZM18.3004 4.67859L10.78 4.67966C8.55135 4.67966 6.66797 6.49219 6.66797 8.65166V22.9357C6.66797 25.3106 8.45782 27.1503 10.78 27.1503H21.432C23.5683 27.1503 25.404 25.1912 25.404 22.9357L25.4031 11.9748L24.2358 11.9788C23.7909 11.9783 23.2849 11.9773 22.7223 11.9761C20.3629 11.9711 18.4374 10.1218 18.3074 7.79391L18.3004 7.54273V4.67859ZM24.3087 9.97584L22.7266 9.97607C21.386 9.97323 20.3004 8.88467 20.3004 7.54273V5.80066L24.3087 9.97584ZM19.047 19.7409C19.5993 19.7409 20.047 20.1886 20.047 20.7409C20.047 21.2471 19.6708 21.6655 19.1827 21.7317L19.047 21.7409H11.851C11.2987 21.7409 10.851 21.2931 10.851 20.7409C10.851 20.2346 11.2272 19.8162 11.7153 19.75L11.851 19.7409H19.047ZM17.325 14.1379C17.325 13.5856 16.8773 13.1379 16.325 13.1379H11.8504L11.7147 13.1471C11.2266 13.2133 10.8504 13.6317 10.8504 14.1379C10.8504 14.6902 11.2981 15.1379 11.8504 15.1379H16.325L16.4607 15.1288C16.9488 15.0626 17.325 14.6442 17.325 14.1379Z" fill="#616161"/>
</svg>
