<?xml version="1.0" encoding="UTF-8"?>
<svg id="Capa_1" xmlns="http://www.w3.org/2000/svg" xmlns:xlink="http://www.w3.org/1999/xlink" version="1.1" viewBox="0 0 759.7 759.7">
  <!-- Generator: Adobe Illustrator 29.2.1, SVG Export Plug-In . SVG Version: 2.1.0 Build 116)  -->
  <defs>
    <style>
      .st0 {
        fill: #231f20;
      }
    </style>
  </defs>
  <path class="st0" d="M186.4,593.2h-50.3c-32.8,0-59.6-26.7-59.6-59.5V136.1c0-32.8,26.7-59.5,59.6-59.5h397.5c32.8,0,59.5,26.7,59.5,59.5v50.3c0,11-8.9,19.9-19.8,19.9s-19.8-8.9-19.8-19.9v-50.3c0-10.9-8.9-19.8-19.9-19.8H136.1c-10.9,0-19.9,8.9-19.9,19.8v397.6c0,10.9,8.9,19.8,19.9,19.8h50.3c11,0,19.9,8.9,19.9,19.8s-8.9,19.8-19.9,19.8Z"/>
  <path class="st0" d="M623.6,683.1H226.1c-32.8,0-59.6-26.7-59.6-59.5V226.1c0-32.8,26.7-59.5,59.6-59.5h397.5c32.8,0,59.5,26.7,59.5,59.5v397.5c0,32.8-26.7,59.5-59.5,59.5ZM226.1,206.3c-10.9,0-19.9,8.9-19.9,19.8v397.5c0,10.9,8.9,19.9,19.9,19.9h397.5c10.9,0,19.9-8.9,19.9-19.9V226.1c0-10.9-8.9-19.8-19.9-19.8H226.1Z"/>
  <path class="st0" d="M320.9,366.9c-30.5,0-55.2-24.8-55.2-55.3s24.8-55.2,55.2-55.2,55.2,24.8,55.2,55.2-24.8,55.3-55.2,55.3ZM320.9,296c-8.6,0-15.5,7-15.5,15.5s7,15.6,15.5,15.6,15.5-7,15.5-15.6-7-15.5-15.5-15.5Z"/>
  <path class="st0" d="M623.6,683.2H226c-32.8,0-59.6-26.7-59.6-59.5v-102.7c0-5.3,2.1-10.3,5.8-14l75.5-75.5c23.2-23.2,61-23.2,84.2,0l49.1,49.1,92.9-92.9c.7-.7,1.4-1.3,2.2-1.9,11-10,25.1-15.4,40-15.4s30.8,6.2,42.1,17.4l119.2,119.2c3.7,3.7,5.8,8.8,5.8,14v102.7c0,32.8-26.7,59.5-59.5,59.5ZM206.1,529.2v94.5c0,10.9,8.9,19.8,19.9,19.8h397.6c10.9,0,19.9-8.9,19.9-19.8v-94.5l-113.4-113.4c-7.7-7.7-20.3-7.7-28,0s-1.2,1.1-1.8,1.6l-105.2,105.2c-7.8,7.8-20.3,7.8-28.1,0l-63.1-63.1c-7.7-7.7-20.3-7.7-28,0l-69.7,69.7Z"/>
</svg>