<svg width="32" height="32" viewBox="0 0 32 32" fill="none" xmlns="http://www.w3.org/2000/svg">
<path fill-rule="evenodd" clip-rule="evenodd" d="M16.0044 2.66406C12.0924 2.66406 8.92106 5.84891 8.92106 9.77763C8.92106 13.7063 12.0924 16.8912 16.0044 16.8912C19.9165 16.8912 23.0878 13.7063 23.0878 9.77763C23.0878 5.84891 19.9165 2.66406 16.0044 2.66406ZM16.0044 4.59429C18.8549 4.59429 21.1658 6.91495 21.1658 9.77763C21.1658 12.6403 18.8549 14.961 16.0044 14.961C13.1539 14.961 10.8431 12.6403 10.8431 9.77763C10.8431 6.91495 13.1539 4.59429 16.0044 4.59429ZM13.1054 19.7586C12.0685 19.8306 11.0203 19.9786 9.98643 20.2002C7.99093 20.6112 6.3945 21.4325 5.71502 22.7972C5.45873 23.331 5.32988 23.9025 5.33206 24.481C5.33129 25.0554 5.4591 25.6276 5.70619 26.1511C6.35862 27.5002 7.7691 28.2636 9.67369 28.6868L10.0149 28.758C11.0207 28.985 12.0692 29.1377 13.1246 29.2095C13.2145 29.2358 13.4288 29.2603 13.6626 29.2722L13.855 29.2795C13.9539 29.2817 14.0661 29.2823 14.2334 29.2823C15.7505 29.3658 17.3233 29.3415 18.8887 29.2082C19.723 29.1511 20.5628 29.042 21.3957 28.8822L22.0188 28.7528C24.0754 28.3471 25.6155 27.5755 26.2902 26.1526C26.7904 25.0962 26.7904 23.8703 26.2904 22.8144C25.6174 21.3951 24.097 20.6299 22.0032 20.1986C21.1817 20.0232 20.347 19.8935 19.5063 19.8106L18.8916 19.7586C16.9666 19.5888 15.0305 19.5888 13.1054 19.7586ZM18.7235 21.6814L18.7404 21.6827C19.7052 21.7506 20.6642 21.8861 21.6103 22.088C23.1655 22.4084 24.2209 22.9396 24.5548 23.6438C24.8063 24.1748 24.8063 24.7918 24.5546 25.3232C24.2426 25.9812 23.2947 26.4896 21.9247 26.8002L21.6247 26.8637C20.66 27.079 19.7042 27.2177 18.7421 27.2837C17.2493 27.4106 15.7653 27.4336 14.2851 27.3535L13.7603 27.3445C13.6146 27.3371 13.4918 27.323 13.378 27.3002C12.477 27.2322 11.6663 27.1246 10.8791 26.9685L10.409 26.869C8.84898 26.5632 7.78424 26.0298 7.43902 25.316C7.31823 25.06 7.2537 24.7711 7.25409 24.4787C7.25301 24.1878 7.31668 23.9054 7.44028 23.6479C7.77594 22.9739 8.9043 22.3935 10.3801 22.0894C11.333 21.8853 12.2915 21.7499 13.256 21.6828C15.0867 21.5215 16.9103 21.5215 18.7235 21.6814Z" fill="#616161"/>
</svg>
