<svg width="32" height="32" viewBox="0 0 32 32" fill="none" xmlns="http://www.w3.org/2000/svg">
<path fill-rule="evenodd" clip-rule="evenodd" d="M15.4834 2.66406C8.40561 2.66406 2.66797 8.27499 2.66797 15.1964C2.66797 22.1178 8.40561 27.7288 15.4834 27.7288C18.5105 27.7288 21.2925 26.7024 23.4853 24.9861L27.6507 29.0489L27.7615 29.1422C28.1483 29.4221 28.6965 29.3903 29.0465 29.0472C29.4314 28.6697 29.4306 28.0586 29.0447 27.6822L24.9282 23.6671C27.0212 21.4366 28.2987 18.4624 28.2987 15.1964C28.2987 8.27499 22.5611 2.66406 15.4834 2.66406ZM15.4834 4.59438C21.4709 4.59438 26.3248 9.34107 26.3248 15.1964C26.3248 21.0518 21.4709 25.7984 15.4834 25.7984C9.49578 25.7984 4.64188 21.0518 4.64188 15.1964C4.64188 9.34107 9.49578 4.59438 15.4834 4.59438Z" fill="#616161"/>
</svg>
