<svg width="14" height="12" viewBox="0 0 14 12" fill="none" xmlns="http://www.w3.org/2000/svg">
<path fill-rule="evenodd" clip-rule="evenodd" d="M13.5235 5.02343C13.4333 5.11112 13.3108 5.16122 13.1818 5.16122C12.7047 5.16122 12.3178 5.53703 12.3178 5.99426C12.3178 6.45463 12.7002 6.82856 13.1728 6.83357C13.4391 6.83607 13.6654 7.01646 13.6654 7.27514V8.88172C13.6654 10.234 12.5371 11.3307 11.1444 11.3307H9.04254C8.82526 11.3307 8.64925 11.1597 8.64925 10.9487V9.59575C8.64925 9.33269 8.43648 9.12599 8.16569 9.12599C7.90134 9.12599 7.68213 9.33269 7.68213 9.59575V10.9487C7.68213 11.1597 7.50611 11.3307 7.28948 11.3307H2.85299C1.46678 11.3307 0.332031 10.2346 0.332031 8.88172V7.27514C0.332031 7.01646 0.558337 6.83607 0.824617 6.83357C1.29786 6.82856 1.67955 6.45463 1.67955 5.99426C1.67955 5.54956 1.3056 5.21133 0.81559 5.21133C0.686641 5.21133 0.56414 5.16122 0.473875 5.07354C0.383611 4.98585 0.332031 4.86684 0.332031 4.74157V3.11934C0.332031 1.76894 1.46936 0.664062 2.85943 0.664062H7.28948C7.50611 0.664062 7.68213 0.835055 7.68213 1.04613V2.64958C7.68213 2.90638 7.90134 3.11934 8.16569 3.11934C8.43648 3.11934 8.64925 2.90638 8.64925 2.64958V1.04613C8.64925 0.835055 8.82526 0.664062 9.04254 0.664062H11.1444C12.5371 0.664062 13.6654 1.76017 13.6654 3.11307V4.69146C13.6654 4.81673 13.6138 4.93574 13.5235 5.02343ZM8.16569 7.91088C8.43648 7.91088 8.64925 7.69792 8.64925 7.44112V4.93574C8.64925 4.67894 8.43648 4.46598 8.16569 4.46598C7.90134 4.46598 7.68213 4.67894 7.68213 4.93574V7.44112C7.68213 7.69792 7.90134 7.91088 8.16569 7.91088Z" fill="#1B7754"/>
</svg>
